<svg width="24" height="22" viewBox="0 0 24 22" fill="none" xmlns="http://www.w3.org/2000/svg">
<path d="M3.5 2.9141H3V2.4141C3 2.28149 2.94732 2.15431 2.85355 2.06055C2.75979 1.96678 2.63261 1.9141 2.5 1.9141C2.36739 1.9141 2.24021 1.96678 2.14645 2.06055C2.05268 2.15431 2 2.28149 2 2.4141V2.9141H1.5C1.43434 2.9141 1.36932 2.92703 1.30866 2.95216C1.248 2.97729 1.19288 3.01412 1.14645 3.06055C1.10002 3.10697 1.06319 3.16209 1.03806 3.22276C1.01293 3.28342 1 3.34844 1 3.4141C1 3.47976 1.01293 3.54478 1.03806 3.60544C1.06319 3.6661 1.10002 3.72122 1.14645 3.76765C1.19288 3.81408 1.248 3.85091 1.30866 3.87604C1.36932 3.90117 1.43434 3.9141 1.5 3.9141H2V4.4141C2 4.54671 2.05268 4.67388 2.14645 4.76765C2.24021 4.86142 2.36739 4.9141 2.5 4.9141C2.63261 4.9141 2.75979 4.86142 2.85355 4.76765C2.94732 4.67388 3 4.54671 3 4.4141V3.9141H3.5C3.63261 3.9141 3.75979 3.86142 3.85355 3.76765C3.94732 3.67388 4 3.54671 4 3.4141C4 3.28149 3.94732 3.15431 3.85355 3.06055C3.75979 2.96678 3.63261 2.9141 3.5 2.9141ZM9.207 4.4141L9.561 4.0601C9.65475 3.96621 9.70737 3.83893 9.70728 3.70624C9.70718 3.57356 9.65439 3.44635 9.5605 3.3526C9.46661 3.25884 9.33933 3.20623 9.20665 3.20632C9.07397 3.20641 8.94675 3.25921 8.853 3.3531L8.5 3.7071L8.146 3.3531C8.0517 3.26202 7.9254 3.21162 7.7943 3.21276C7.6632 3.2139 7.5378 3.26649 7.44509 3.35919C7.35239 3.45189 7.2998 3.5773 7.29866 3.7084C7.29752 3.8395 7.34792 3.9658 7.439 4.0601L7.793 4.4141L7.439 4.7681C7.34792 4.8624 7.29752 4.9887 7.29866 5.1198C7.2998 5.2509 7.35239 5.3763 7.44509 5.46901C7.5378 5.56171 7.6632 5.6143 7.7943 5.61544C7.9254 5.61657 8.0517 5.56618 8.146 5.4751L8.5 5.1201L8.853 5.4741C8.89942 5.52059 8.95455 5.55748 9.01523 5.58266C9.0759 5.60784 9.14095 5.62083 9.20665 5.62088C9.27234 5.62092 9.33741 5.60803 9.39812 5.58293C9.45884 5.55783 9.51401 5.52102 9.5605 5.4746C9.60699 5.42818 9.64388 5.37305 9.66906 5.31237C9.69425 5.25169 9.70723 5.18665 9.70728 5.12095C9.70732 5.05525 9.69443 4.99019 9.66933 4.92948C9.64423 4.86876 9.60742 4.81359 9.561 4.7671L9.207 4.4141ZM5.568 1.9141C5.43438 1.91438 5.306 1.86211 5.21058 1.76856C5.11517 1.67502 5.06036 1.5477 5.058 1.4141C5.058 1.1381 5.272 0.914099 5.548 0.914099H5.568C5.70061 0.914099 5.82779 0.966777 5.92155 1.06055C6.01532 1.15431 6.068 1.28149 6.068 1.4141C6.068 1.54671 6.01532 1.67388 5.92155 1.76765C5.82779 1.86142 5.70061 1.9141 5.568 1.9141ZM21.568 6.9141C21.4344 6.91438 21.306 6.86211 21.2106 6.76856C21.1152 6.67502 21.0604 6.5477 21.058 6.4141C21.058 6.1381 21.272 5.9141 21.548 5.9141H21.568C21.7006 5.9141 21.8278 5.96678 21.9216 6.06055C22.0153 6.15431 22.068 6.28149 22.068 6.4141C22.068 6.54671 22.0153 6.67388 21.9216 6.76765C21.8278 6.86142 21.7006 6.9141 21.568 6.9141ZM4 21.3641C4 21.1941 4.013 21.0301 4.025 20.8641H1.038C1.313 19.1001 3.052 18.1691 4.99 17.9311C5.229 17.5501 5.505 17.1931 5.815 16.8701C2.891 16.9261 0 18.3201 0 21.3641C0 21.4967 0.0526784 21.6239 0.146447 21.7177C0.240215 21.8114 0.367392 21.8641 0.5 21.8641H4.092C4.032 21.7041 4.002 21.5341 4 21.3641ZM19 10.8641C17.897 10.8641 17 11.7611 17 12.8641C17 13.9671 17.897 14.8641 19 14.8641C20.103 14.8641 21 13.9671 21 12.8641C21 11.7611 20.103 10.8641 19 10.8641ZM19 15.8641C17.346 15.8641 16 14.5181 16 12.8641C16 11.2101 17.346 9.8641 19 9.8641C20.654 9.8641 22 11.2101 22 12.8641C22 14.5181 20.654 15.8641 19 15.8641ZM5 10.8641C3.897 10.8641 3 11.7611 3 12.8641C3 13.9671 3.897 14.8641 5 14.8641C6.103 14.8641 7 13.9671 7 12.8641C7 11.7611 6.103 10.8641 5 10.8641ZM5 15.8641C3.346 15.8641 2 14.5181 2 12.8641C2 11.2101 3.346 9.8641 5 9.8641C6.654 9.8641 8 11.2101 8 12.8641C8 14.5181 6.654 15.8641 5 15.8641ZM18.185 16.8701C18.495 17.1931 18.771 17.5501 19.01 17.9321C20.949 18.1691 22.686 19.1001 22.96 20.8641H19.975C19.988 21.0301 20 21.1941 20 21.3641C20 21.5401 19.964 21.7071 19.909 21.8641H23.499C23.776 21.8641 23.999 21.6411 23.999 21.3641C23.999 18.3201 21.109 16.9261 18.185 16.8701ZM6.027 21.0001H17.905C17.655 18.7531 15.745 17.0001 13.432 17.0001H10.5C9.39339 17.0014 8.32594 17.4098 7.50105 18.1475C6.67616 18.8852 6.15148 19.9005 6.027 21.0001ZM18.432 22.0001H5.5C5.36739 22.0001 5.24021 21.9474 5.14645 21.8537C5.05268 21.7599 5 21.6327 5 21.5001C5 18.4671 7.467 16.0001 10.5 16.0001H13.432C16.465 16.0001 18.932 18.4671 18.932 21.5001C18.932 21.6327 18.8793 21.7599 18.7856 21.8537C18.6918 21.9474 18.5646 22.0001 18.432 22.0001ZM11.933 9.0001C10.83 9.0001 9.933 9.8971 9.933 11.0001C9.933 12.1031 10.83 13.0001 11.933 13.0001C13.036 13.0001 13.933 12.1031 13.933 11.0001C13.933 9.8971 13.036 9.0001 11.933 9.0001ZM11.933 14.0001C10.279 14.0001 8.933 12.6541 8.933 11.0001C8.933 9.3461 10.279 8.0001 11.933 8.0001C13.587 8.0001 14.933 9.3461 14.933 11.0001C14.933 12.6541 13.587 14.0001 11.933 14.0001ZM16.124 1.0001C15.816 1.0001 15.539 1.1181 15.399 1.2581C15.3043 1.33745 15.2274 1.43595 15.1735 1.54711C15.1195 1.65828 15.0897 1.77959 15.086 1.9031C15.065 2.2481 15.19 2.6171 15.396 2.8231C15.851 3.3851 16.732 4.1691 17.478 4.7781C17.953 4.3901 19.02 3.4941 19.523 2.8641C19.6435 2.73627 19.7366 2.58519 19.7966 2.42011C19.8566 2.25504 19.8822 2.07945 19.872 1.9041C19.863 1.7501 19.816 1.4671 19.601 1.2961C19.5854 1.28417 19.5707 1.27114 19.557 1.2571C19.389 1.0881 19.017 0.949099 18.632 1.0181C18.4799 1.04088 18.336 1.10155 18.2135 1.19451C18.091 1.28748 17.9939 1.40976 17.931 1.5501C17.767 1.9011 17.19 1.9011 17.026 1.5501C16.9634 1.40978 16.8664 1.28749 16.7441 1.19451C16.6217 1.10153 16.478 1.04086 16.326 1.0181C16.2594 1.00575 16.1917 0.999726 16.124 1.0001ZM17.479 5.8661C17.3211 5.86634 17.1679 5.81233 17.045 5.7131C16.644 5.3931 15.292 4.2871 14.652 3.4891C14.281 3.1211 14.051 2.4761 14.088 1.8451C14.12 1.2921 14.35 0.818099 14.735 0.513099C15.123 0.119099 15.832 -0.0839013 16.498 0.0330987C16.879 0.0990987 17.212 0.261099 17.478 0.504099C17.7535 0.25619 18.0943 0.0923958 18.46 0.0320986C19.12 -0.0819014 19.812 0.113099 20.244 0.532099C20.617 0.837099 20.839 1.3031 20.87 1.8461C20.906 2.4771 20.676 3.1221 20.268 3.5301C19.661 4.2921 18.312 5.3941 17.914 5.7121C17.7907 5.81133 17.6373 5.86565 17.479 5.8661Z" fill="black"/>
</svg>
