<svg width="24" height="22" viewBox="0 0 24 22" fill="none" xmlns="http://www.w3.org/2000/svg">
<path d="M21.9877 1.76355C24.6877 3.96355 24.5877 8.96355 22.0877 11.4635C19.8877 14.2635 14.6877 19.5635 12.7877 21.0635C12.2877 21.4635 11.6877 21.4635 11.1877 21.0635C9.38768 19.5635 4.18768 14.2635 1.98768 11.4635C-0.612323 8.86355 -0.712323 3.86355 1.98768 1.76355C4.58768 -0.83645 9.68768 -0.636451 11.9877 2.86355C14.2877 -0.536451 19.2877 -0.83645 21.9877 1.76355ZM21.2877 2.56355C18.8877 0.16355 14.0877 0.56355 12.3877 4.06355C12.2877 4.36355 11.9877 4.46355 11.6877 4.26355C11.5877 4.26355 11.4877 4.16355 11.4877 4.06355C9.88768 0.56355 4.98768 0.0635498 2.58768 2.56355C0.387677 4.26355 0.487677 8.66355 2.68768 10.8635C4.88768 13.5635 9.98768 18.8636 11.7877 20.2635C11.8877 20.3636 11.9877 20.3636 12.0877 20.2635C13.8877 18.8636 18.9877 13.5635 21.1877 10.7635C23.4877 8.66355 23.5877 4.26355 21.2877 2.56355Z" fill="black"/>
</svg>
