<svg width="32" height="32" viewBox="0 0 32 32" fill="none" xmlns="http://www.w3.org/2000/svg">
<path d="M16.5159 0.00811734C24.9459 0.294117 31.7419 7.08612 31.9919 15.4701C32.1299 19.9451 30.4639 24.1511 27.3029 27.3121C24.2699 30.3471 20.2709 32.0001 15.9979 32.0001C15.8269 32.0001 15.6579 31.9981 15.4859 31.9931C7.05988 31.7081 0.260884 24.9161 0.0098836 16.5311C-0.144116 12.0771 1.50588 7.88112 4.65488 4.71812C7.81888 1.54312 12.0219 -0.131883 16.5149 0.00811734H16.5159ZM16.4849 1.00812C12.2719 0.876117 8.33488 2.44012 5.36388 5.42412C2.40988 8.39012 0.864884 12.3191 1.00888 16.5001C1.24388 24.3571 7.61888 30.7251 15.5139 30.9931C15.6689 30.9971 15.8269 30.9991 15.9979 30.9991C20.0099 30.9991 23.7519 29.4491 26.5959 26.6041C29.5619 23.6381 31.1219 19.6981 30.9929 15.4991C30.7619 7.74912 24.5589 1.44912 16.8059 1.02112L16.4849 1.00712V1.00812Z" fill="black"/>
<path d="M21.146 6.703C21.181 6.703 21.181 6.738 21.216 6.738C21.709 9.095 22.976 12.121 26.178 13.353C26.635 15.253 26.6 17.363 25.931 19.51C25.051 22.15 22.167 25.07 19.528 25.95C13.51 27.99 7.87998 24.787 5.94598 19.72C13.23 18.067 12.666 9.552 12.666 9.552L12.756 9.889C12.943 10.662 13.326 12.647 12.913 14.654C19 14.548 20.689 9.694 21.146 6.703ZM21.285 10.056L21.21 10.242C19.844 13.476 17.2 15.58 12.93 15.654C12.8145 15.6564 12.6995 15.6388 12.59 15.602L12.501 15.565L12.425 15.728C11.395 17.867 9.75798 19.472 7.43998 20.323L7.32498 20.362L7.44298 20.585C9.60698 24.545 14.247 26.545 18.936 25.09L19.212 25C21.541 24.224 24.199 21.546 24.977 19.213C25.492 17.559 25.61 15.891 25.351 14.31L25.307 14.069L25.233 14.036C23.525 13.229 22.273 11.932 21.407 10.294L21.285 10.056Z" fill="black"/>
<path d="M16.678 21.938C16.8565 21.9429 17.0289 22.0045 17.17 22.114C17.719 22.534 18.356 22.804 19.027 22.739L19.211 22.712C19.281 22.712 19.351 22.677 19.422 22.677L19.457 22.747L18.12 23.521C17.698 23.768 17.276 23.979 16.783 24.049H16.748C15.517 24.295 14.25 23.944 13.265 23.239L12.561 22.747L12.596 22.677C12.666 22.677 12.737 22.712 12.807 22.712C13.547 22.818 14.25 22.572 14.848 22.114C14.9894 22.0043 15.1621 21.9427 15.341 21.938C15.622 21.938 15.833 22.078 16.009 22.255C16.15 22.044 16.396 21.938 16.678 21.938ZM22.8 14.795L22.891 14.97C23.124 15.394 23.829 16.42 25.65 16.45L25.685 16.484C25.285 16.684 23.803 16.631 22.6 16.052L22.413 15.956L22.474 16.186C22.666 16.83 23.043 17.379 24.207 17.505V17.54C23.774 17.64 22.33 17.298 21.252 16.484L21.076 16.344C21.216 17.118 21.569 17.927 22.483 18.244V18.279C21.991 18.279 20.619 17.575 19.774 16.414C19.739 17.153 19.88 17.962 20.619 18.49V18.525C18.085 17.012 17.909 15.323 17.733 14.971L17.944 14.866C18.964 16.555 22.202 16.061 22.8 14.795Z" fill="black"/>
</svg>
