<svg width="24" height="22" viewBox="0 0 24 22" fill="none" xmlns="http://www.w3.org/2000/svg">
<path d="M23.4982 9.00002C23.8242 9.00002 24.0642 9.28002 23.9852 9.57002L20.9072 20.89C20.7302 21.542 20.0912 22 19.3572 22H4.64319C3.91019 22 3.27219 21.542 3.09319 20.89L0.0151928 9.57002C-0.0638072 9.28002 0.175193 9.00002 0.502193 9.00002H23.4982ZM20.3862 18.999H3.61319L4.06619 20.667C4.10404 20.7893 4.18077 20.8959 4.28473 20.9707C4.38869 21.0454 4.5142 21.0841 4.64219 21.081H19.3582C19.6292 21.081 19.8672 20.911 19.9332 20.667L20.3862 18.999ZM21.2012 15.999H2.79719L3.34119 17.999H20.6582L21.2012 15.999ZM22.0172 12.999H1.98119L2.52519 14.999H21.4732L22.0172 12.999ZM22.8562 9.91902H1.14419L1.71019 12H22.2892L22.8562 9.92002V9.91902ZM13.8192 0.714022L19.4312 5.91402C19.4794 5.95867 19.5183 6.01238 19.5458 6.07207C19.5732 6.13176 19.5886 6.19628 19.5911 6.26193C19.5936 6.32758 19.5832 6.39308 19.5604 6.4547C19.5376 6.51631 19.5028 6.57283 19.4582 6.62102C19.4135 6.66922 19.3598 6.70815 19.3001 6.73559C19.2404 6.76303 19.1759 6.77844 19.1103 6.78095C19.0446 6.78345 18.9791 6.773 18.9175 6.7502C18.8559 6.72739 18.7994 6.69267 18.7512 6.64802L13.1392 1.44802C12.8296 1.16055 12.4227 1.00079 12.0002 1.00079C11.5777 1.00079 11.1708 1.16055 10.8612 1.44802L5.24919 6.64802C5.201 6.69267 5.14448 6.72739 5.08287 6.7502C5.02125 6.773 4.95575 6.78345 4.8901 6.78095C4.82445 6.77844 4.75994 6.76303 4.70024 6.73559C4.64055 6.70815 4.58684 6.66922 4.54219 6.62102C4.49754 6.57283 4.46282 6.51631 4.44002 6.4547C4.41721 6.39308 4.40676 6.32758 4.40927 6.26193C4.41178 6.19628 4.42719 6.13176 4.45463 6.07207C4.48207 6.01238 4.521 5.95867 4.56919 5.91402L10.1812 0.714022C10.6757 0.255054 11.3255 0 12.0002 0C12.6749 0 13.3247 0.255054 13.8192 0.714022Z" fill="black"/>
</svg>
