<svg width="24" height="21" viewBox="0 0 24 21" fill="none" xmlns="http://www.w3.org/2000/svg">
<path d="M1.5 21C1.36739 21 1.24021 20.9473 1.14645 20.8536C1.05268 20.7598 1 20.6326 1 20.5V0.5C1 0.367392 1.05268 0.240215 1.14645 0.146447C1.24021 0.0526785 1.36739 0 1.5 0H22.5C22.6326 0 22.7598 0.0526785 22.8536 0.146447C22.9473 0.240215 23 0.367392 23 0.5V20.5C23 20.6326 22.9473 20.7598 22.8536 20.8536C22.7598 20.9473 22.6326 21 22.5 21H1.5ZM22 20V1H2V20H22Z" fill="black"/>
<path d="M0 20H24V21H0V20Z" fill="black"/>
<path d="M7.5 21C7.36739 21 7.24021 20.9473 7.14645 20.8536C7.05268 20.7598 7 20.6326 7 20.5V10.5C7 10.3674 7.05268 10.2402 7.14645 10.1464C7.24021 10.0527 7.36739 10 7.5 10H16.5C16.6326 10 16.7598 10.0527 16.8536 10.1464C16.9473 10.2402 17 10.3674 17 10.5V20.5C17 20.6326 16.9473 20.7598 16.8536 20.8536C16.7598 20.9473 16.6326 21 16.5 21H7.5ZM16 20V11H8V20H16Z" fill="black"/>
<path d="M11.5 10H12.5V21H11.5V10ZM1 3V2H23V3H1ZM1 5V4H23V5H1ZM1 7V6H23V7H1Z" fill="black"/>
</svg>
